<?xml version="1.0" standalone="no"?>
<!DOCTYPE svg PUBLIC "-//W3C//DTD SVG 1.1//EN" "http://www.w3.org/Graphics/SVG/1.1/DTD/svg11.dtd">
<svg xmlns="http://www.w3.org/2000/svg" id="Ebene_1" data-name="Ebene 1" viewBox="0 0 1834 621.23" width="1834" height="621.22998046875">
  <defs><style>path,polygon,rect{fill:#ffffff}</style></defs>
  <path class="cls-1" fill="#ffffff" d="M300,327.87h183l174.17-263.66c9.31-11.37,18.38-18.86,33.75-20.24,10.21-.91,57.71-1.48,65.18.98,8.89,2.92,6.67,12.6,3.7,19.9-5.69,14.01-39.61,63.3-50.18,77.76-8.36,11.44-13.13,17.92-28.38,19.78-18.89,2.3-50.69-6.38-66.26,7.56-5.3,4.74-25.11,37.12-26.17,43.98-.99,6.43,2.21,13.19,5.51,18.69,8.53,14.2,55.72,68.98,68.61,81.34,5.9,5.66,13.8,9.32,21.02,12.97h178.11c2.33-1.63,2.25-3.05,1.59-5.62-1.72-6.69-49.87-53.83-58.67-63.36-16.61-17.99-32.96-36.43-48.93-55.01,3.19-3.57,8.44-4.56,12.96-4.97,16.1-1.47,37.88,3.27,56.09,2.08,19.22-1.26,38.13-5.84,51.95-20.04,25.92-46.25,66.51-93.08,90.62-139.29,14.29-27.39,4.36-38.65-24.58-40.72h-412.17c-15.07,1.74-28.62,7.97-37.78,20.21l-192.24,297.56-.89,10.1ZM1194.16,97.85c-3.02-2.55-14.01-65.85-18.04-76.89-4.6-12.62-13.96-17.8-27.04-18.95-42.93-3.79-90.43,4.04-133.78-1.21-20.41,1.89-19.91,14.63-19.75,31.82-31.36,46.62-60.55,111.48-95.59,154.3-12.85,15.7-34.82,28.48-55.17,30.81-10.49,1.2-21.32-1.59-31.62,1.99l-.75,12.82,85.5,92.42c14.24,10.13,23.42,2.26,32.95-9.21l112.31-177.59,6.44,3.22,33.28,104.65c13.11,23.23,38.02,6.21,53.73-4.47,41.27-28.04,80.67-63.3,121.59-92.35,2.4-1.71,16.51-12.39,17.78-11.19l-109.97,179.05c-2.28,21.13,27.66,12.84,38.89,12.72,32.65-.34,65.7,2.39,98.08,2.25,23.43-.1,46.56-8.36,59.05-29.1L1534.95,19.95c3.64-6.7-2.55-10.87-6.99-14.82l-198.48-.57-23.35,10.65-102.17,81.77-9.8.87ZM671.6,428.4c-62.25,5.23-105.56,52.45-93.4,116.13,19.16,100.32,186.8,101.9,207.21,1.6,15-73.7-42.82-123.69-113.81-117.73ZM1139.6,428.4c-61.02,4.32-101.93,47.87-95.35,110.08,12.11,114.64,224.54,113.12,209.51-29.49-5.88-55.77-62.67-84.24-114.16-80.59ZM220,617.67l-78.98-183.89c-1.45-2.24-3.71-1.82-5.9-2.09-10.28-1.28-39.87-1.23-50.22,0-2.21.26-4.38.05-5.95,2.05L0,617.67h60l9.79-26.74,78.89-1.33,11.32,28.07h60ZM274,431.8h-60v118.92c0,68.08,86.92,81.39,137.04,63,23.64-8.68,44.96-32.54,44.96-59v-122.92h-60v120.92c0,.6-4.14,9.78-5.03,10.96-8.38,11.14-41.54,11.18-50.35,1.43-1.03-1.14-6.61-13.59-6.61-14.38v-118.92ZM576,431.8h-166v47.97h54v137.91h58v-137.91h54v-47.97ZM858,431.8h-58v185.88h58v-73.95l34.97,71.98c3.21,2.86,32.11,2.79,38.14,2.09,2.89-.34,5.25-.2,6.68-3.32l34.21-70.75v73.95h58v-185.88h-58l-57,121.94-57-121.94ZM1385,431.8h-117v185.88h121c5.73,0,24.95-8.08,30.39-11.6,31.42-20.36,31.43-73.08-7.39-84.36,4.22-10.59,13.57-13.23,17.42-25.53,10.09-32.23-12.4-60.06-44.42-64.39ZM1514,431.8h-58v185.88h58v-185.88ZM1590,431.8h-60v185.88h146v-47.97h-86v-137.91ZM1834,431.8h-144v185.88h144v-47.97h-86v-21.99h78v-45.97h-78v-21.99h86v-47.97Z"/>
  <path fill="#ffffff" d="M1194.16,97.85l9.8-.87,102.17-81.77,23.35-10.65,198.48.57c4.45,3.95,10.63,8.12,6.99,14.82l-172.9,282.98c-12.49,20.74-35.62,29-59.05,29.1-32.39.14-65.43-2.59-98.08-2.25-11.23.12-41.17,8.41-38.89-12.72l109.97-179.05c-1.28-1.2-15.38,9.48-17.78,11.19-40.92,29.05-80.32,64.31-121.59,92.35-15.71,10.68-40.62,27.7-53.73,4.47l-33.28-104.65-6.44-3.22-112.31,177.59c-9.53,11.47-18.71,19.33-32.95,9.21l-85.5-92.42.75-12.82c10.29-3.58,21.13-.79,31.62-1.99,20.35-2.33,42.33-15.11,55.17-30.81,35.05-42.82,64.23-107.68,95.59-154.3-.16-17.2-.67-29.93,19.75-31.82,43.35,5.25,90.85-2.58,133.78,1.21,13.07,1.15,22.43,6.33,27.04,18.95,4.03,11.04,15.02,74.34,18.04,76.89Z"/>
  <path fill="#ffffff" d="M300,327.87l.89-10.1L493.13,20.21C502.3,7.97,515.85,1.74,530.92,0h412.17c28.93,2.07,38.86,13.33,24.58,40.72-24.11,46.21-64.7,93.04-90.62,139.29-13.82,14.2-32.73,18.78-51.95,20.04-18.21,1.19-39.99-3.56-56.09-2.08-4.52.41-9.77,1.41-12.96,4.97,15.97,18.58,32.32,37.01,48.93,55.01,8.8,9.53,56.95,56.68,58.67,63.36.66,2.57.75,3.99-1.59,5.63h-178.11c-7.22-3.65-15.11-7.32-21.02-12.98-12.89-12.36-60.08-67.14-68.61-81.34-3.3-5.49-6.49-12.25-5.51-18.69,1.05-6.86,20.87-39.24,26.17-43.98,15.57-13.94,47.37-5.26,66.26-7.56,15.25-1.86,20.02-8.34,28.38-19.78,10.57-14.46,44.5-63.75,50.18-77.76,2.96-7.3,5.18-16.98-3.7-19.9-7.47-2.45-54.97-1.89-65.18-.98-15.37,1.38-24.44,8.86-33.75,20.24l-174.17,263.66h-183Z"/>
  <path fill="#ffffff" d="M858,431.8l57,121.94,57-121.94h58v185.88h-58v-73.95l-34.21,70.75c-1.43,3.12-3.79,2.98-6.68,3.32-6.03.7-34.93.77-38.14-2.09l-34.97-71.98v73.95h-58v-185.88h58Z"/>
  <path fill="#ffffff" d="M1385,431.8c32.02,4.33,54.51,32.16,44.42,64.39-3.85,12.3-13.19,14.94-17.42,25.53,38.82,11.28,38.8,64.01,7.39,84.36-5.44,3.52-24.66,11.6-30.39,11.6h-121v-185.88h117ZM1363,475.77c-10.76-1.81-25.7,1.32-37,0v29.98h37c10,0,12.35-27.9,0-29.98ZM1326,539.73v30.98c1.26,1.98,2.76,2.59,5,3,8.28,1.52,39.24.77,45.81-4.19,9.82-7.42,4.06-29.79-5.81-29.79h-45Z"/>
  <path fill="#ffffff" d="M1139.6,428.4c51.49-3.64,108.28,24.83,114.16,80.59,15.03,142.61-197.39,144.13-209.51,29.49-6.57-62.21,34.33-105.77,95.35-110.08ZM1116.71,488.47c-24.16,23.96-14.43,77.95,22.46,83.06,73,10.11,72.02-96.19,9.83-95.91-10.01.05-25.19,5.81-32.29,12.85Z"/>
  <path fill="#ffffff" d="M671.6,428.4c70.98-5.96,128.8,44.03,113.81,117.73-20.41,100.3-188.05,98.72-207.21-1.6-12.16-63.67,31.16-110.9,93.4-116.13ZM677.61,476.28c-54.18,4.41-52.81,87.35-8.13,94.95,77.42,13.17,75.93-100.47,8.13-94.95Z"/>
  <path fill="#ffffff" d="M274,431.8v118.92c0,.79,5.58,13.24,6.61,14.38,8.82,9.76,41.98,9.71,50.35-1.43.89-1.18,5.03-10.36,5.03-10.96v-120.92h60v122.92c0,26.46-21.32,50.32-44.96,59-50.12,18.4-137.04,5.09-137.04-63v-118.92h60Z"/>
  <polygon fill="#ffffff" points="1834 431.8 1834 479.77 1748 479.77 1748 501.75 1826 501.75 1826 547.72 1748 547.72 1748 569.71 1834 569.71 1834 617.67 1690 617.67 1690 431.8 1834 431.8"/>
  <path fill="#ffffff" d="M220,617.67h-60l-11.32-28.07-78.89,1.33-9.79,26.74H0l78.94-183.94c1.57-2,3.74-1.79,5.95-2.05,10.35-1.23,39.95-1.28,50.22,0,2.2.27,4.45-.14,5.9,2.09l78.98,183.89ZM88,543.72h44l-21.02-53.98c-4.06-.84-2.82,1.57-3.9,4-7.13,15.98-11.75,33.99-19.08,49.98Z"/>
  <polygon fill="#ffffff" points="576 431.8 576 479.77 522 479.77 522 617.67 464 617.67 464 479.77 410 479.77 410 431.8 576 431.8"/>
  <polygon fill="#ffffff" points="1590 431.8 1590 569.71 1676 569.71 1676 617.67 1530 617.67 1530 431.8 1590 431.8"/>
  <rect fill="#ffffff" x="1456" y="431.8" width="58" height="185.88"/>
  <path class="cls-1" fill="#ffffff" d="M1326,539.73h45c9.87,0,15.62,22.37,5.81,29.79-6.56,4.96-37.52,5.7-45.81,4.19-2.24-.41-3.74-1.02-5-3v-30.98Z"/>
  <path class="cls-1" fill="#ffffff" d="M1363,475.77c12.35,2.08,10,29.98,0,29.98h-37v-29.98c11.3,1.32,26.24-1.81,37,0Z"/>
  <path class="cls-1" fill="#ffffff" d="M1116.71,488.47c7.1-7.04,22.27-12.81,32.29-12.85,62.19-.29,63.17,106.01-9.83,95.91-36.89-5.11-46.62-59.09-22.46-83.06Z"/>
  <path class="cls-1" fill="#ffffff" d="M677.61,476.28c67.79-5.52,69.29,108.13-8.13,94.95-44.68-7.6-46.05-90.54,8.13-94.95Z"/>
  <path class="cls-1" fill="#ffffff" d="M88,543.72c7.33-16,11.95-34,19.08-49.98,1.08-2.43-.15-4.84,3.9-4l21.02,53.98h-44Z"/>
</svg>